<mxfile host="app.diagrams.net" modified="2020-07-12T20:36:46.333Z" agent="5.0 (X11; Linux x86_64) AppleWebKit/537.36 (KHTML, like Gecko) Chrome/81.0.4044.138 Safari/537.36" etag="k2pFFee8dC6lHEVnV4b_" version="13.3.7" type="github">
  <diagram id="8VgFyHsWdR9TD98RZUVb" name="Page-1">
    <mxGraphModel dx="1722" dy="715" grid="1" gridSize="10" guides="1" tooltips="1" connect="1" arrows="1" fold="1" page="1" pageScale="1" pageWidth="50" pageHeight="10" math="0" shadow="0">
      <root>
        <mxCell id="0" />
        <mxCell id="1" parent="0" />
        <mxCell id="OK2LHqRYtyTByZGpbo5Y-2" value="2008-2014" style="rounded=1;whiteSpace=wrap;html=1;strokeColor=#666666;fillColor=#f5f5f5;fontColor=#333333;fontSize=15;fontStyle=1" parent="1" vertex="1">
          <mxGeometry x="-65" y="140" width="80" height="30" as="geometry" />
        </mxCell>
        <mxCell id="OK2LHqRYtyTByZGpbo5Y-9" value="DECADE" style="rounded=1;whiteSpace=wrap;html=1;fontSize=20;rotation=-90;fontStyle=1;fillColor=#d5e8d4;strokeColor=#82b366;" parent="1" vertex="1">
          <mxGeometry x="-175" y="205" width="120" height="35" as="geometry" />
        </mxCell>
        <mxCell id="OK2LHqRYtyTByZGpbo5Y-12" value="RAHU" style="rounded=1;whiteSpace=wrap;html=1;fontSize=20;rotation=-90;fontStyle=1;fillColor=#d5e8d4;strokeColor=#82b366;" parent="1" vertex="1">
          <mxGeometry x="-175" y="465" width="120" height="35" as="geometry" />
        </mxCell>
        <mxCell id="OK2LHqRYtyTByZGpbo5Y-13" value="GCC2" style="rounded=1;whiteSpace=wrap;html=1;fontSize=20;rotation=-90;fontStyle=1;fillColor=#d5e8d4;strokeColor=#82b366;" parent="1" vertex="1">
          <mxGeometry x="-242.87" y="515" width="120" height="35" as="geometry" />
        </mxCell>
        <mxCell id="OK2LHqRYtyTByZGpbo5Y-14" value="Ing. Meteorologo" style="rounded=1;whiteSpace=wrap;html=1;fontSize=20;rotation=90;fontStyle=1;fillColor=#dae8fc;strokeColor=#6c8ebf;" parent="1" vertex="1">
          <mxGeometry x="-20" y="163" width="170" height="35" as="geometry" />
        </mxCell>
        <mxCell id="OK2LHqRYtyTByZGpbo5Y-15" value="Mg.Sc. RRHH" style="rounded=1;whiteSpace=wrap;html=1;fontSize=20;rotation=90;fontStyle=1;fillColor=#dae8fc;strokeColor=#6c8ebf;" parent="1" vertex="1">
          <mxGeometry x="-5" y="397.5" width="140" height="35" as="geometry" />
        </mxCell>
        <mxCell id="OK2LHqRYtyTByZGpbo5Y-16" value="R" style="rounded=1;whiteSpace=wrap;html=1;fontSize=20;rotation=90;fontStyle=1;fillColor=#e6d0de;strokeColor=#996185;gradientColor=#d5739d;" parent="1" vertex="1">
          <mxGeometry x="-80" y="365" width="430" height="35" as="geometry" />
        </mxCell>
        <mxCell id="OK2LHqRYtyTByZGpbo5Y-17" value="python" style="rounded=1;whiteSpace=wrap;html=1;fontSize=20;rotation=90;fontStyle=1;fillColor=#e6d0de;strokeColor=#996185;gradientColor=#d5739d;" parent="1" vertex="1">
          <mxGeometry x="100" y="473" width="210" height="35" as="geometry" />
        </mxCell>
        <mxCell id="OK2LHqRYtyTByZGpbo5Y-18" value="2015" style="rounded=1;whiteSpace=wrap;html=1;strokeColor=#666666;fillColor=#f5f5f5;fontColor=#333333;fontSize=18;fontStyle=1" parent="1" vertex="1">
          <mxGeometry x="-65" y="198" width="80" height="30" as="geometry" />
        </mxCell>
        <mxCell id="OK2LHqRYtyTByZGpbo5Y-19" value="2016" style="rounded=1;whiteSpace=wrap;html=1;strokeColor=#666666;fillColor=#f5f5f5;fontColor=#333333;fontSize=18;fontStyle=1" parent="1" vertex="1">
          <mxGeometry x="-65" y="260" width="80" height="30" as="geometry" />
        </mxCell>
        <mxCell id="OK2LHqRYtyTByZGpbo5Y-20" value="2017" style="rounded=1;whiteSpace=wrap;html=1;strokeColor=#666666;fillColor=#f5f5f5;fontColor=#333333;fontSize=18;fontStyle=1" parent="1" vertex="1">
          <mxGeometry x="-65" y="320" width="80" height="30" as="geometry" />
        </mxCell>
        <mxCell id="OK2LHqRYtyTByZGpbo5Y-21" value="2018" style="rounded=1;whiteSpace=wrap;html=1;strokeColor=#666666;fillColor=#f5f5f5;fontColor=#333333;fontSize=18;fontStyle=1" parent="1" vertex="1">
          <mxGeometry x="-65" y="380" width="80" height="30" as="geometry" />
        </mxCell>
        <mxCell id="OK2LHqRYtyTByZGpbo5Y-22" value="2019" style="rounded=1;whiteSpace=wrap;html=1;strokeColor=#666666;fillColor=#f5f5f5;fontColor=#333333;fontSize=18;fontStyle=1" parent="1" vertex="1">
          <mxGeometry x="-65" y="440" width="80" height="30" as="geometry" />
        </mxCell>
        <mxCell id="OK2LHqRYtyTByZGpbo5Y-23" value="2020" style="rounded=1;whiteSpace=wrap;html=1;strokeColor=#666666;fillColor=#f5f5f5;fontColor=#333333;fontSize=18;fontStyle=1" parent="1" vertex="1">
          <mxGeometry x="-65" y="500" width="80" height="30" as="geometry" />
        </mxCell>
        <mxCell id="OK2LHqRYtyTByZGpbo5Y-24" style="edgeStyle=orthogonalEdgeStyle;rounded=0;orthogonalLoop=1;jettySize=auto;html=1;exitX=0.5;exitY=1;exitDx=0;exitDy=0;fontSize=18;" parent="1" source="OK2LHqRYtyTByZGpbo5Y-21" target="OK2LHqRYtyTByZGpbo5Y-21" edge="1">
          <mxGeometry relative="1" as="geometry" />
        </mxCell>
        <mxCell id="OK2LHqRYtyTByZGpbo5Y-25" value="CLIMANDES 2" style="rounded=1;whiteSpace=wrap;html=1;fontSize=20;rotation=-90;fontStyle=1;fillColor=#d5e8d4;strokeColor=#82b366;" parent="1" vertex="1">
          <mxGeometry x="-256" y="315" width="146.25" height="35" as="geometry" />
        </mxCell>
        <mxCell id="OK2LHqRYtyTByZGpbo5Y-26" value="&lt;b style=&quot;font-size: 20px;&quot;&gt;¿ Hidrología o Meteorología ?&lt;/b&gt;" style="rounded=1;whiteSpace=wrap;html=1;fontSize=20;rotation=-90;gradientColor=#7ea6e0;fillColor=#dae8fc;strokeColor=#6c8ebf;" parent="1" vertex="1">
          <mxGeometry x="-470" y="365" width="430" height="35" as="geometry" />
        </mxCell>
      </root>
    </mxGraphModel>
  </diagram>
</mxfile>
